<?xml version="1.0" encoding="UTF-8"?>
<svg width="512px" height="512px" viewBox="0 0 512 512" version="1.1" xmlns="http://www.w3.org/2000/svg">
    <title>Biceps Icon</title>
    <g stroke="none" fill="#4a4e69">
        <path d="M300,140 C360,140 390,180 390,230 C390,280 380,320 350,350 C320,380 280,390 240,380 C200,370 170,350 160,320 C150,290 150,250 160,220 C170,190 190,150 240,140 C260,136 280,136 300,140 Z" />
        <path d="M240,380 C210,370 180,350 170,320 C160,290 150,250 170,220 C180,200 200,180 230,170 C210,190 200,220 200,250 C200,280 210,310 230,330 C250,350 280,360 310,350 C280,370 260,385 240,380 Z" fill="#22223b" />
        <path d="M180,240 C170,200 180,160 210,130 C240,100 290,90 330,110 C370,130 390,170 390,220 C390,240 385,260 375,275 C365,255 350,240 330,230 C310,220 285,215 260,220 C235,225 215,240 200,260 C190,255 185,250 180,240 Z" fill-opacity="0.2" />
    </g>
</svg>
